<svg version="1.1" id="Layer_1" xmlns="http://www.w3.org/2000/svg" xmlns:xlink="http://www.w3.org/1999/xlink" x="0px" y="0px"
	 width="100%" viewBox="0 0 96 96" enable-background="new 0 0 96 96" xml:space="preserve">
<path fill="#000000" opacity="1.000000" stroke="none" 
	d="
M66.000000,97.000000 
	C44.000004,97.000000 22.500008,97.000000 1.000009,97.000000 
	C1.000006,65.000008 1.000006,33.000019 1.000003,1.000021 
	C32.999985,1.000014 64.999969,1.000014 96.999969,1.000007 
	C96.999977,32.999981 96.999977,64.999962 96.999985,96.999969 
	C86.833336,97.000000 76.666664,97.000000 66.000000,97.000000 
M50.974701,23.127581 
	C51.024349,20.766129 51.074001,18.404676 51.783485,15.731715 
	C56.833927,11.090471 62.370697,12.861806 67.937874,14.432064 
	C69.499329,14.872482 71.167099,14.935953 72.786102,15.172330 
	C72.926949,14.558541 73.067795,13.944752 73.208641,13.330963 
	C71.510208,12.224729 69.879417,10.314270 68.100533,10.164673 
	C62.983498,9.734351 57.801636,9.893032 52.656734,10.102516 
	C51.352776,10.155609 50.048740,11.866148 48.818264,11.778839 
	C43.364353,11.391853 37.942612,10.242598 32.498047,10.166197 
	C29.870436,10.129324 27.218102,11.854339 24.576962,12.781575 
	C24.806797,13.646047 25.036631,14.510517 25.266466,15.374988 
	C26.663382,15.214777 28.178356,15.349021 29.437157,14.844327 
	C35.483849,12.420014 41.363728,11.304135 46.982971,16.922220 
	C47.044216,19.282549 47.105461,21.642879 47.026215,24.882908 
	C47.073120,27.257441 47.120029,29.631971 47.027359,32.897228 
	C47.073833,35.599033 47.120312,38.300842 47.023182,41.848785 
	C45.756023,42.565941 44.487377,43.887421 43.221992,43.884308 
	C39.748062,43.875763 39.363491,45.206913 40.587734,47.886982 
	C49.697575,48.196445 50.891544,47.373730 50.998222,40.243469 
	C52.017666,40.239445 53.381630,39.808430 53.997120,40.305046 
	C56.712585,42.496071 59.753746,42.895203 61.699581,40.209423 
	C62.767204,38.735817 62.655552,35.175552 61.558006,33.643066 
	C59.732960,31.094776 56.722813,31.576214 54.180569,33.536610 
	C51.786491,35.382740 51.760128,35.348549 50.975700,31.126112 
	C50.928234,28.751806 50.880768,26.377502 50.974701,23.127581 
M80.979820,59.139431 
	C80.930702,57.094559 80.881584,55.049686 81.158211,52.382305 
	C83.049988,50.256340 84.941765,48.130371 86.978607,45.115105 
	C86.929932,42.412758 86.881248,39.710415 86.975700,36.127644 
	C86.928040,33.754276 86.880379,31.380911 86.962509,28.276398 
	C85.519432,23.503162 82.484108,21.402117 77.360855,21.902847 
	C75.171921,22.116785 72.627075,20.447662 70.681099,21.048948 
	C65.476463,22.657120 66.994370,27.036751 67.350578,31.309092 
	C69.879738,29.003897 71.764687,26.145184 74.344749,25.215483 
	C77.771255,23.980766 81.100815,25.671808 83.027367,29.885548 
	C83.074051,32.259731 83.120743,34.633919 83.027077,37.894184 
	C82.980522,40.580158 82.933960,43.266136 82.232300,46.262405 
	C78.704918,49.391788 75.229164,50.110283 70.734856,47.564171 
	C68.770752,46.451473 65.507507,47.215931 63.010620,47.837040 
	C62.552422,47.951019 62.543526,53.048996 63.008774,53.167351 
	C65.505089,53.802399 68.219200,53.691933 70.853844,53.636669 
	C72.868721,53.594402 74.877296,53.251648 76.987846,53.905857 
	C77.047592,55.939156 77.107346,57.972458 77.026543,60.894108 
	C77.072769,63.597164 77.118996,66.300217 76.851753,69.664948 
	C73.918716,70.760918 71.024620,72.027260 67.999161,72.718956 
	C67.653893,72.797890 66.572510,69.657089 65.981972,67.187164 
	C65.784752,61.016216 64.385223,60.201027 54.789654,61.716488 
	C56.651459,62.861568 57.694946,63.301018 58.471611,64.026230 
	C59.792038,65.259178 60.944489,66.672020 62.028488,68.832451 
	C61.884571,72.423668 61.623901,76.093552 66.722343,76.773895 
	C60.398277,80.921280 55.644405,79.980774 50.800739,73.956749 
	C50.406654,73.466621 47.580746,73.903923 47.114235,74.664429 
	C43.736774,80.170380 35.950527,80.951065 31.872614,76.006989 
	C37.067474,74.023926 37.467472,72.011139 33.400494,68.318687 
	C30.684738,73.599518 27.825184,74.499374 23.026974,71.537560 
	C22.473577,71.195953 22.094049,70.326118 21.558422,70.252823 
	C20.386084,70.092392 19.165249,70.286369 17.964220,70.335602 
	C18.250380,71.387688 18.217098,72.778076 18.893553,73.416832 
	C20.065321,74.523308 21.668900,75.177963 23.106157,75.996147 
	C24.376753,76.719460 25.667509,77.407356 27.249249,78.765808 
	C30.454899,83.743027 35.534031,81.492897 39.990505,82.890686 
	C39.437046,86.722443 40.856804,88.512138 44.937908,88.048409 
	C47.237133,87.787163 49.621540,87.758385 51.912804,88.052116 
	C56.657318,88.660332 58.777946,86.865211 58.997952,82.008369 
	C64.270454,82.001129 70.049171,83.106628 72.917114,76.008675 
	C78.499031,75.797371 80.326401,74.180595 80.983986,68.115128 
	C80.933624,65.411987 80.883263,62.708847 80.979820,59.139431 
M27.215607,29.271702 
	C26.586201,31.760107 25.500597,34.264500 25.586927,36.727825 
	C25.615273,37.536606 28.681845,38.799686 30.359426,38.800266 
	C31.553669,38.800674 33.472374,37.229568 33.795990,36.019642 
	C34.522995,33.301556 34.245548,30.456327 31.019493,28.135517 
	C30.962013,23.489914 28.594812,20.101187 25.884130,20.675364 
	C23.410004,21.199434 20.901890,21.915771 18.409578,21.912548 
	C15.251388,21.908459 13.173129,23.052795 11.237673,26.357754 
	C11.237673,29.809353 11.237673,33.260952 11.237673,37.101608 
	C17.165136,35.058464 14.101566,30.892214 15.768075,27.736496 
	C21.507921,23.276314 25.917511,23.720268 27.215607,29.271702 
M46.907650,57.656715 
	C44.517963,57.464378 42.108780,57.007458 39.746098,57.181564 
	C38.386433,57.281761 37.145927,58.517803 35.775394,59.043362 
	C31.915354,60.523582 30.768524,62.881630 33.062630,66.717369 
	C33.882553,66.420609 35.064518,66.329437 35.218082,65.883842 
	C36.419296,62.398335 37.763027,62.797844 40.352631,64.865730 
	C41.544685,65.817627 45.133900,65.752998 45.910133,64.776825 
	C47.086800,63.297081 46.757736,60.620022 46.907650,57.656715 
M21.608988,52.926613 
	C23.734005,52.186039 25.859022,51.445465 28.381365,50.566425 
	C22.939293,48.791180 18.680548,47.360600 14.387362,46.042168 
	C13.671891,45.822449 12.732850,45.914749 12.040434,46.204887 
	C11.673707,46.358555 11.341525,47.318752 11.464131,47.793324 
	C12.059118,50.096306 18.410923,53.811428 21.608988,52.926613 
z"/>
<path fill="#1B6CFF" opacity="1.000000" stroke="none" 
	d="
M46.886395,16.042946 
	C41.363728,11.304135 35.483849,12.420014 29.437157,14.844327 
	C28.178356,15.349021 26.663382,15.214777 25.266466,15.374988 
	C25.036631,14.510517 24.806797,13.646047 24.576962,12.781575 
	C27.218102,11.854339 29.870436,10.129324 32.498047,10.166197 
	C37.942612,10.242598 43.364353,11.391853 48.818264,11.778839 
	C50.048740,11.866148 51.352776,10.155609 52.656734,10.102516 
	C57.801636,9.893032 62.983498,9.734351 68.100533,10.164673 
	C69.879417,10.314270 71.510208,12.224729 73.208641,13.330963 
	C73.067795,13.944752 72.926949,14.558541 72.786102,15.172330 
	C71.167099,14.935953 69.499329,14.872482 67.937874,14.432064 
	C62.370697,12.861806 56.833927,11.090471 51.029804,15.879395 
	C49.146214,16.032364 48.016304,16.037655 46.886395,16.042946 
z"/>
<path fill="#B828FF" opacity="1.000000" stroke="none" 
	d="
M39.887562,82.041931 
	C35.534031,81.492897 30.454899,83.743027 27.228600,78.099564 
	C28.509811,76.969528 29.811674,76.505730 31.113537,76.041931 
	C35.950527,80.951065 43.736774,80.170380 47.114235,74.664429 
	C47.580746,73.903923 50.406654,73.466621 50.800739,73.956749 
	C55.644405,79.980774 60.398277,80.921280 67.239731,76.398560 
	C69.208534,76.029716 70.659966,76.036209 72.111389,76.042694 
	C70.049171,83.106628 64.270454,82.001129 58.158180,82.017311 
	C56.524025,82.026634 55.729637,82.027016 54.591782,81.967667 
	C50.491184,79.206520 46.772900,80.139565 42.667625,82.023331 
	C41.476143,82.026794 40.681854,82.034370 39.887562,82.041931 
z"/>
<path fill="#7546FF" opacity="1.000000" stroke="none" 
	d="
M86.833542,46.004406 
	C84.941765,48.130371 83.049988,50.256340 80.602188,52.692375 
	C78.993675,53.015816 77.941177,53.029182 76.888680,53.042549 
	C74.877296,53.251648 72.868721,53.594402 70.853844,53.636669 
	C68.219200,53.691933 65.505089,53.802399 63.008774,53.167351 
	C62.543526,53.048996 62.552422,47.951019 63.010620,47.837040 
	C65.507507,47.215931 68.770752,46.451473 70.734856,47.564171 
	C75.229164,50.110283 78.704918,49.391788 82.954620,46.120415 
	C84.729134,45.987087 85.781342,45.995747 86.833542,46.004406 
z"/>
<path fill="#5554FF" opacity="1.000000" stroke="none" 
	d="
M47.166786,41.002647 
	C47.120312,38.300842 47.073833,35.599033 47.463757,32.450783 
	C48.877796,32.005051 49.855442,32.005764 50.833084,32.006474 
	C51.760128,35.348549 51.786491,35.382740 54.180569,33.536610 
	C56.722813,31.576214 59.732960,31.094776 61.558006,33.643066 
	C62.655552,35.175552 62.767204,38.735817 61.699581,40.209423 
	C59.753746,42.895203 56.712585,42.496071 53.997120,40.305046 
	C53.381630,39.808430 52.017666,40.239445 50.549072,40.622478 
	C49.122211,41.001873 48.144497,41.002262 47.166786,41.002647 
z"/>
<path fill="#8F3AFF" opacity="1.000000" stroke="none" 
	d="
M46.988014,58.054176 
	C46.757736,60.620022 47.086800,63.297081 45.910133,64.776825 
	C45.133900,65.752998 41.544685,65.817627 40.352631,64.865730 
	C37.763027,62.797844 36.419296,62.398335 35.218082,65.883842 
	C35.064518,66.329437 33.882553,66.420609 33.062630,66.717369 
	C30.768524,62.881630 31.915354,60.523582 35.775394,59.043362 
	C37.145927,58.517803 38.386433,57.281761 39.746098,57.181564 
	C42.108780,57.007458 44.517963,57.464378 46.988014,58.054176 
z"/>
<path fill="#3A5FFF" opacity="1.000000" stroke="none" 
	d="
M83.167175,29.006601 
	C81.100815,25.671808 77.771255,23.980766 74.344749,25.215483 
	C71.764687,26.145184 69.879738,29.003897 67.350578,31.309092 
	C66.994370,27.036751 65.476463,22.657120 70.681099,21.048948 
	C72.627075,20.447662 75.171921,22.116785 77.360855,21.902847 
	C82.484108,21.402117 85.519432,23.503162 86.531059,28.640747 
	C85.122131,29.005598 84.144653,29.006100 83.167175,29.006601 
z"/>
<path fill="#AA2FFF" opacity="1.000000" stroke="none" 
	d="
M72.514252,76.025688 
	C70.659966,76.036209 69.208534,76.029716 67.321724,76.032547 
	C61.623901,76.093552 61.884571,72.423668 62.464493,68.419174 
	C63.877811,68.007004 64.855133,68.008110 65.832451,68.009209 
	C66.572510,69.657089 67.653893,72.797890 67.999161,72.718956 
	C71.024620,72.027260 73.918716,70.760918 77.375557,69.332642 
	C78.877815,69.001404 79.856277,69.002472 80.834732,69.003540 
	C80.326401,74.180595 78.499031,75.797371 72.514252,76.025688 
z"/>
<path fill="#3A5FFF" opacity="1.000000" stroke="none" 
	d="
M11.950975,25.894411 
	C13.173129,23.052795 15.251388,21.908459 18.409578,21.912548 
	C20.901890,21.915771 23.410004,21.199434 25.884130,20.675364 
	C28.594812,20.101187 30.962013,23.489914 30.665291,28.554129 
	C29.500269,28.967087 28.689447,28.961432 27.878628,28.955778 
	C25.917511,23.720268 21.507921,23.276314 15.088070,27.857174 
	C13.589035,27.283369 12.770005,26.588890 11.950975,25.894411 
z"/>
<path fill="#AA2FFF" opacity="1.000000" stroke="none" 
	d="
M31.493074,76.024460 
	C29.811674,76.505730 28.509811,76.969528 27.078657,77.772110 
	C25.667509,77.407356 24.376753,76.719460 23.106157,75.996147 
	C21.668900,75.177963 20.065321,74.523308 18.893553,73.416832 
	C18.217098,72.778076 18.250380,71.387688 17.964220,70.335602 
	C19.165249,70.286369 20.386084,70.092392 21.558422,70.252823 
	C22.094049,70.326118 22.473577,71.195953 23.026974,71.537560 
	C27.825184,74.499374 30.684738,73.599518 33.400494,68.318687 
	C37.467472,72.011139 37.067474,74.023926 31.493074,76.024460 
z"/>
<path fill="#4F57FF" opacity="1.000000" stroke="none" 
	d="
M27.547117,29.113739 
	C28.689447,28.961432 29.500269,28.967087 30.716419,28.964279 
	C34.245548,30.456327 34.522995,33.301556 33.795990,36.019642 
	C33.472374,37.229568 31.553669,38.800674 30.359426,38.800266 
	C28.681845,38.799686 25.615273,37.536606 25.586927,36.727825 
	C25.500597,34.264500 26.586201,31.760107 27.547117,29.113739 
z"/>
<path fill="#C623FF" opacity="1.000000" stroke="none" 
	d="
M54.935253,82.027405 
	C55.729637,82.027016 56.524025,82.026634 57.715481,82.034042 
	C58.777946,86.865211 56.657318,88.660332 51.912804,88.052116 
	C49.621540,87.758385 47.237133,87.787163 44.937908,88.048409 
	C40.856804,88.512138 39.437046,86.722443 39.939034,82.466309 
	C40.681854,82.034370 41.476143,82.026794 42.662506,82.427551 
	C46.165550,86.448517 53.389553,85.956924 54.935253,82.027405 
z"/>
<path fill="#7546FF" opacity="1.000000" stroke="none" 
	d="
M21.300682,53.202217 
	C18.410923,53.811428 12.059118,50.096306 11.464131,47.793324 
	C11.341525,47.318752 11.673707,46.358555 12.040434,46.204887 
	C12.732850,45.914749 13.671891,45.822449 14.387362,46.042168 
	C18.680548,47.360600 22.939293,48.791180 28.381365,50.566425 
	C25.859022,51.445465 23.734005,52.186039 21.300682,53.202217 
z"/>
<path fill="#684BFF" opacity="1.000000" stroke="none" 
	d="
M47.094986,41.425716 
	C48.144497,41.002262 49.122211,41.001873 50.466560,41.002075 
	C50.891544,47.373730 49.697575,48.196445 40.587734,47.886982 
	C39.363491,45.206913 39.748062,43.875763 43.221992,43.884308 
	C44.487377,43.887421 45.756023,42.565941 47.094986,41.425716 
z"/>
<path fill="#9537FF" opacity="1.000000" stroke="none" 
	d="
M65.907211,67.598190 
	C64.855133,68.008110 63.877811,68.007004 62.534008,68.007584 
	C60.944489,66.672020 59.792038,65.259178 58.471611,64.026230 
	C57.694946,63.301018 56.651459,62.861568 54.789654,61.716488 
	C64.385223,60.201027 65.784752,61.016216 65.907211,67.598190 
z"/>
<path fill="#604FFF" opacity="1.000000" stroke="none" 
	d="
M86.906075,45.559753 
	C85.781342,45.995747 84.729134,45.987087 83.282166,45.965267 
	C82.933960,43.266136 82.980522,40.580158 83.463760,37.449837 
	C84.877815,37.006351 85.855194,37.007210 86.832573,37.008068 
	C86.881248,39.710415 86.929932,42.412758 86.906075,45.559753 
z"/>
<path fill="#9537FF" opacity="1.000000" stroke="none" 
	d="
M80.909363,68.559334 
	C79.856277,69.002472 78.877815,69.001404 77.532295,69.001801 
	C77.118996,66.300217 77.072769,63.597164 77.462997,60.448326 
	C78.877266,60.003597 79.855087,60.004654 80.832901,60.005707 
	C80.883263,62.708847 80.933624,65.411987 80.909363,68.559334 
z"/>
<path fill="#4959FF" opacity="1.000000" stroke="none" 
	d="
M11.594324,26.126083 
	C12.770005,26.588890 13.589035,27.283369 14.760413,28.010672 
	C14.101566,30.892214 17.165136,35.058464 11.237673,37.101608 
	C11.237673,33.260952 11.237673,29.809353 11.594324,26.126083 
z"/>
<path fill="#4F57FF" opacity="1.000000" stroke="none" 
	d="
M86.904137,36.567856 
	C85.855194,37.007210 84.877815,37.006351 83.533936,37.006798 
	C83.120743,34.633919 83.074051,32.259731 83.097275,29.446075 
	C84.144653,29.006100 85.122131,29.005598 86.466156,29.006321 
	C86.880379,31.380911 86.928040,33.754276 86.904137,36.567856 
z"/>
<path fill="#415CFF" opacity="1.000000" stroke="none" 
	d="
M50.904392,31.566292 
	C49.855442,32.005764 48.877796,32.005051 47.533546,32.005424 
	C47.120029,29.631971 47.073120,27.257441 47.463112,24.442497 
	C48.877773,24.002457 49.855534,24.002827 50.833298,24.003197 
	C50.880768,26.377502 50.928234,28.751806 50.904392,31.566292 
z"/>
<path fill="#2F64FF" opacity="1.000000" stroke="none" 
	d="
M50.903999,23.565388 
	C49.855534,24.002827 48.877773,24.002457 47.533356,24.002647 
	C47.105461,21.642879 47.044216,19.282549 46.934685,16.482582 
	C48.016304,16.037655 49.146214,16.032364 50.699890,16.035149 
	C51.074001,18.404676 51.024349,20.766129 50.903999,23.565388 
z"/>
<path fill="#843FFF" opacity="1.000000" stroke="none" 
	d="
M80.906357,59.572571 
	C79.855087,60.004654 78.877266,60.003597 77.533279,60.004150 
	C77.107346,57.972458 77.047592,55.939156 76.938263,53.474205 
	C77.941177,53.029182 78.993675,53.015816 80.439316,53.003632 
	C80.881584,55.049686 80.930702,57.094559 80.906357,59.572571 
z"/>
<path fill="#BFA8FF" opacity="1.000000" stroke="none" 
	d="
M54.591782,81.967659 
	C53.389553,85.956924 46.165550,86.448517 43.059700,82.431648 
	C46.772900,80.139565 50.491184,79.206520 54.591782,81.967659 
z"/>
</svg>