<?xml version="1.0" standalone="no"?>
<!DOCTYPE svg PUBLIC "-//W3C//DTD SVG 20010904//EN"
 "http://www.w3.org/TR/2001/REC-SVG-20010904/DTD/svg10.dtd">
<svg version="1.0" xmlns="http://www.w3.org/2000/svg"
 width="573.000000pt" height="90.000000pt" viewBox="0 0 573.000000 90.000000"
 preserveAspectRatio="xMidYMid meet">

<g transform="translate(0.000000,90.000000) scale(0.100000,-0.100000)"
fill="#000000" stroke="none">
<path d="M448 753 c-3 -10 0 -29 5 -43 6 -14 11 -60 12 -103 1 -43 5 -80 9
-84 6 -7 10 66 7 128 -4 69 45 88 106 42 51 -40 93 -149 64 -167 -4 -3 -6 -17
-4 -30 5 -24 3 -27 -69 -93 -38 -35 -101 -7 -97 42 4 61 -10 57 -21 -5 -6 -34
-5 -40 10 -40 29 0 46 -28 32 -51 -7 -10 -12 -28 -12 -39 0 -17 7 -20 44 -20
40 0 45 3 51 27 3 16 27 58 52 95 68 100 70 190 6 275 -48 62 -186 109 -195
66z"/>
<path d="M720 720 c-14 -11 -20 -20 -14 -20 7 0 22 9 35 20 31 25 12 26 -21 0z"/>
<path d="M509 684 c-16 -20 -1 -48 30 -52 38 -6 23 -28 -16 -23 -17 2 -27 -37
-13 -53 6 -8 19 -12 29 -9 15 4 18 0 14 -21 -5 -27 -17 -34 -28 -16 -9 15 -25
12 -25 -5 0 -8 7 -15 15 -15 17 0 20 -16 5 -25 -15 -10 -12 -45 5 -51 21 -9
48 15 35 31 -6 8 -6 15 2 23 16 16 28 15 28 -3 0 -21 17 -19 29 4 9 15 6 22
-12 34 l-22 15 28 11 c20 8 27 17 27 37 0 25 -2 26 -37 20 -37 -6 -37 -6 -15
10 12 9 22 25 22 36 0 23 -29 36 -41 17 -7 -11 -11 -10 -23 6 -13 17 -13 20 0
23 17 4 9 22 -10 22 -8 0 -19 -7 -27 -16z"/>
<path d="M5183 653 c-3 -10 -30 -80 -60 -156 -29 -76 -53 -143 -53 -148 0 -5
13 -9 29 -9 24 0 31 6 45 45 l18 45 58 0 58 0 14 -42 c13 -37 19 -43 46 -46
18 -2 32 -1 32 3 0 3 -28 77 -61 165 -60 156 -62 160 -91 160 -18 0 -31 -6
-35 -17z m53 -118 c19 -45 19 -45 -16 -45 -16 0 -30 3 -30 7 0 10 24 73 28 73
1 0 10 -16 18 -35z"/>
<path d="M4227 644 c-24 -24 13 -72 42 -55 20 13 9 56 -14 59 -12 2 -24 0 -28
-4z"/>
<path d="M5432 638 c-30 -30 9 -69 44 -43 15 11 17 17 8 32 -14 23 -36 27 -52
11z"/>
<path d="M3380 590 c0 -29 -4 -40 -15 -40 -8 0 -15 -9 -15 -20 0 -11 6 -20 14
-20 9 0 15 -20 19 -67 6 -79 26 -103 87 -103 34 0 37 2 33 24 -4 19 -12 26
-37 28 -30 3 -31 4 -34 61 l-3 57 36 0 c28 0 35 4 35 20 0 16 -7 20 -35 20
-34 0 -35 1 -35 40 0 36 -2 40 -25 40 -22 0 -25 -4 -25 -40z"/>
<path d="M770 600 c-24 -8 -23 -8 8 -9 17 -1 32 4 32 9 0 11 -5 11 -40 0z"/>
<path d="M4891 551 c-7 -5 -31 -6 -52 -4 l-39 6 0 -107 0 -106 30 0 30 0 0 64
c0 65 14 96 45 96 13 0 25 21 25 46 0 16 -18 18 -39 5z"/>
<path d="M3182 530 c-42 -39 -22 -85 44 -101 33 -9 44 -16 42 -28 -4 -20 -44
-27 -64 -11 -11 10 -17 10 -30 -1 -15 -12 -14 -15 6 -31 32 -26 86 -23 115 7
14 13 25 30 25 37 0 29 -31 56 -70 63 -31 5 -40 11 -40 27 0 18 4 20 39 14 50
-8 75 15 35 32 -38 18 -78 14 -102 -8z"/>
<path d="M3571 521 c-59 -55 -34 -159 42 -179 85 -23 158 49 136 133 -21 76
-118 102 -178 46z m118 -37 c12 -15 21 -33 21 -41 0 -19 -45 -63 -65 -63 -20
0 -65 44 -65 63 0 25 41 67 65 67 14 0 32 -11 44 -26z"/>
<path d="M3800 444 l0 -104 25 0 c24 0 25 3 25 58 0 66 19 102 54 102 36 0 46
-19 46 -92 l0 -68 30 0 30 0 0 68 c0 73 10 92 46 92 35 0 54 -36 54 -102 0
-55 1 -58 25 -58 24 0 25 2 25 65 0 71 -17 117 -49 135 -30 15 -92 12 -113 -7
-16 -15 -19 -15 -36 0 -13 12 -37 16 -90 15 l-72 0 0 -104z"/>
<path d="M4220 445 l0 -105 30 0 30 0 0 105 0 105 -30 0 -30 0 0 -105z"/>
<path d="M4350 530 c0 -17 7 -20 45 -20 25 0 45 -4 45 -8 0 -5 -20 -32 -45
-61 -26 -31 -45 -63 -45 -77 0 -23 2 -24 80 -24 73 0 80 2 80 20 0 17 -7 20
-45 20 -25 0 -45 3 -45 8 0 4 20 30 45 59 28 32 45 61 45 77 0 26 -1 26 -80
26 -73 0 -80 -2 -80 -20z"/>
<path d="M4585 526 c-75 -75 -6 -213 95 -191 42 9 58 32 34 50 -12 8 -23 10
-28 4 -16 -15 -52 -10 -69 9 -32 35 -21 42 63 42 48 0 80 4 80 10 0 24 -30 79
-48 89 -37 20 -101 13 -127 -13z m103 -28 c21 -21 13 -28 -33 -28 -25 0 -45 4
-45 8 0 15 24 32 45 32 12 0 26 -5 33 -12z"/>
<path d="M5430 445 l0 -105 25 0 25 0 0 105 0 105 -25 0 -25 0 0 -105z"/>
<path d="M755 480 c11 -5 29 -9 40 -9 17 -1 17 1 5 9 -8 5 -26 9 -40 9 -23 0
-23 -1 -5 -9z"/>
<path d="M465 370 c-3 -5 -1 -10 4 -10 6 0 11 5 11 10 0 6 -2 10 -4 10 -3 0
-8 -4 -11 -10z"/>
<path d="M705 370 c3 -5 16 -15 28 -21 22 -12 22 -12 3 10 -19 21 -43 30 -31
11z"/>
<path d="M445 314 c0 -13 3 -24 8 -24 4 0 7 9 7 19 0 11 -3 22 -7 24 -5 3 -8
-6 -8 -19z"/>
<path d="M446 245 c5 -13 20 -15 78 -13 95 4 91 22 -6 26 -68 2 -77 1 -72 -13z"/>
<path d="M446 185 c-4 -12 6 -15 64 -15 56 0 70 3 70 15 0 22 -125 22 -134 0z"/>
<path d="M445 115 c0 -19 5 -25 23 -25 31 0 62 17 62 35 0 11 -12 15 -42 15
-39 0 -43 -2 -43 -25z"/>
</g>
</svg>
