<svg version="1.1" id="Layer_1" xmlns="http://www.w3.org/2000/svg" xmlns:xlink="http://www.w3.org/1999/xlink" x="0px" y="0px"
	 width="100%" viewBox="0 0 573 90" enable-background="new 0 0 573 90" xml:space="preserve">
<path fill="#FEFEFF" opacity="1.000000" stroke="none" 
	d="
M421.000000,91.000000 
	C280.666687,91.000000 140.833389,91.000000 1.000056,91.000000 
	C1.000038,61.000031 1.000038,31.000061 1.000019,1.000068 
	C191.999939,1.000046 382.999878,1.000046 573.999878,1.000023 
	C573.999878,30.999931 573.999878,60.999863 573.999939,90.999893 
	C523.166687,91.000000 472.333344,91.000000 421.000000,91.000000 
M30.556406,23.188057 
	C30.304443,23.381542 30.117294,23.624878 29.425819,24.346514 
	C24.170166,34.005733 25.007042,42.759163 32.109764,50.824360 
	C33.382477,52.565792 34.655193,54.307224 36.038742,56.811966 
	C37.218365,59.617195 36.399181,64.393112 42.760445,62.944542 
	C45.882858,62.403439 46.445526,60.459126 45.938641,57.633251 
	C45.679577,56.188972 46.007648,54.639374 46.880337,53.022247 
	C47.932384,52.767120 48.984428,52.511997 50.604614,52.857819 
	C50.070591,55.989693 49.536564,59.121567 48.886768,62.932404 
	C51.264187,62.642696 52.685631,62.469482 54.811905,62.539722 
	C59.446289,63.493305 59.108570,59.621365 60.642418,56.604683 
	C61.522129,54.417507 62.401840,52.230331 63.946888,50.037216 
	C64.646202,49.392395 65.345520,48.747570 66.297569,47.446060 
	C71.039848,41.716927 71.923309,31.634697 67.840874,25.677208 
	C66.888634,24.287613 64.703758,23.742702 63.095661,22.069464 
	C61.404591,16.921152 56.753933,14.076759 52.239597,15.632608 
	C49.447262,15.290881 46.654926,14.949155 43.105846,14.743228 
	C39.911720,16.482605 36.717594,18.221983 32.902752,20.056253 
	C32.263180,21.029013 31.623606,22.001770 31.003080,22.996391 
	C31.003080,22.996391 30.976442,22.989035 30.556406,23.188057 
M50.063572,70.094170 
	C46.738636,70.080528 43.395313,69.864655 40.098877,70.164444 
	C38.966103,70.267456 37.950478,71.658684 36.881336,72.461411 
	C37.926113,73.289352 38.926880,74.752914 40.023727,74.828873 
	C43.656803,75.080444 47.324505,74.831856 51.850594,74.908081 
	C53.515232,74.918762 55.274006,75.263885 56.813656,74.830505 
	C57.970993,74.504745 58.847015,73.179527 59.848270,72.299240 
	C58.886124,71.553207 57.999474,70.331757 56.945442,70.164375 
	C55.008625,69.856827 52.973248,70.169960 50.063572,70.094170 
M303.895264,57.302727 
	C310.552856,56.208817 313.264679,49.197937 310.707428,35.871094 
	C309.025543,35.950787 307.300659,36.032513 305.166504,36.133633 
	C305.166504,38.750511 305.439056,40.929279 305.101318,43.008938 
	C304.618774,45.980244 303.689545,48.879009 302.163391,51.893467 
	C298.160675,52.154701 296.908997,49.897171 296.972076,46.325123 
	C297.030243,43.033382 296.984497,39.739811 296.984497,36.206413 
	C294.793121,36.206413 293.095276,36.206413 290.986755,36.206413 
	C290.986755,40.322350 290.854401,44.125023 291.015839,47.915180 
	C291.303375,54.665672 296.230774,58.470173 303.895264,57.302727 
M364.769073,57.832142 
	C372.509613,57.300270 377.366272,52.545551 376.973999,45.883438 
	C376.580353,39.198727 371.192474,34.918064 363.350464,35.451408 
	C356.998840,37.651665 353.891754,41.479832 354.094604,46.855343 
	C354.304291,52.413410 357.744751,56.117115 364.769073,57.832142 
M390.190521,35.314766 
	C387.184692,35.665806 384.178864,36.016850 381.264587,36.357201 
	C381.264587,43.559074 381.264587,50.411636 381.264587,57.673168 
	C383.335510,57.567730 385.018555,57.482037 386.915497,57.385456 
	C386.915497,53.645531 387.041779,50.506275 386.880554,47.381859 
	C386.713531,44.145279 387.922729,41.960953 391.735321,41.022346 
	C394.991730,41.929680 396.107544,44.205112 396.008606,47.414993 
	C395.907928,50.681973 395.986359,53.954475 395.986359,57.292198 
	C398.316101,57.292198 400.023712,57.292198 402.011139,57.292198 
	C402.011139,54.745934 402.030914,52.597469 402.006653,50.449501 
	C401.967468,46.980576 401.487823,43.379990 405.799591,41.061165 
	C409.573578,41.102409 411.060120,43.278263 411.082550,46.772064 
	C411.105347,50.320442 411.087616,53.869087 411.087616,57.764313 
	C413.540955,57.617901 415.118042,57.523785 416.998444,57.411572 
	C416.998444,52.761795 417.322723,48.470104 416.920929,44.247509 
	C416.347290,38.218891 411.132355,34.727215 404.172699,35.761650 
	C400.723785,37.608162 397.342712,37.911247 393.879181,35.656273 
	C393.163300,35.190170 391.979309,35.443001 390.190521,35.314766 
M150.231491,35.276356 
	C147.228439,36.127068 144.225388,36.977779 141.975433,37.615154 
	C139.750458,36.884266 137.872665,36.267422 135.210709,35.306305 
	C131.555099,35.624531 127.899506,35.942757 124.329758,36.253506 
	C124.329758,43.489258 124.329758,50.362892 124.329758,57.206276 
	C126.375412,57.206276 128.081467,57.206276 130.010513,57.206276 
	C130.010513,53.492908 129.993088,50.184090 130.015030,46.875530 
	C130.041199,42.927341 131.664169,40.572235 136.503464,41.547325 
	C137.365906,43.533020 138.706818,45.455402 138.979889,47.519081 
	C139.401031,50.701786 139.090790,53.981274 139.090790,57.230148 
	C141.455658,57.230148 143.148361,57.230148 145.111679,57.230148 
	C145.111679,53.535713 145.047989,50.245895 145.128448,46.959610 
	C145.220718,43.190853 146.595566,40.562294 151.545486,41.497398 
	C157.067230,45.789185 152.451645,52.249393 154.936295,57.360397 
	C156.625351,57.360397 158.344635,57.360397 160.321762,57.360397 
	C160.321762,52.946747 160.644974,48.813828 160.243057,44.752674 
	C159.693771,39.202236 156.859589,36.672718 150.231491,35.276356 
M179.808563,56.189552 
	C181.978912,56.774853 184.149246,57.360157 186.719604,58.053341 
	C186.719604,50.076591 186.719604,43.205990 186.719604,35.999737 
	C183.659058,35.999737 180.829559,35.999737 177.385788,35.593498 
	C170.744629,34.859219 166.029678,37.753376 164.470917,43.756031 
	C163.200562,48.648167 164.848679,52.868332 168.879028,55.581074 
	C171.874466,57.597248 175.477737,59.774731 179.808563,56.189552 
M204.467712,35.366009 
	C202.682877,35.502880 200.811966,35.342728 199.128815,35.830471 
	C193.308899,37.516956 189.931168,43.869194 191.661209,49.500309 
	C193.552734,55.657024 198.937027,58.700878 205.707474,57.044350 
	C206.497238,57.308052 207.287018,57.571751 208.076782,57.835453 
	C207.051666,59.904621 206.026550,61.973789 204.157288,64.103897 
	C202.842346,64.016449 201.299057,64.342613 200.254303,63.765793 
	C196.798233,61.857662 195.194290,63.737125 193.367126,66.601135 
	C197.454071,69.294235 201.309708,71.217888 206.771805,69.121376 
	C209.110062,66.333160 213.113297,63.738899 213.465073,60.719269 
	C214.407822,52.626312 213.786575,44.351166 213.786575,35.842747 
	C210.563950,35.842747 207.801895,35.842747 204.467712,35.366009 
M269.597778,57.767845 
	C276.641571,58.499409 281.919800,55.734436 286.070831,49.792336 
	C284.230042,48.546230 282.784058,47.567394 281.338104,46.588558 
	C281.358032,47.067757 281.377960,47.546955 281.397888,48.026154 
	C277.251251,49.220531 273.104645,50.414906 268.283142,51.225708 
	C267.041931,50.616436 265.543884,50.271767 264.600281,49.355873 
	C257.263184,42.234135 258.562073,34.721825 268.858948,29.056282 
	C273.115112,30.187553 277.371277,31.318825 281.627441,32.450096 
	C281.580963,32.976517 281.534485,33.502941 281.488037,34.029366 
	C282.974030,32.889088 284.459991,31.748808 286.158722,30.445288 
	C281.087738,24.477983 275.635223,21.069160 267.261383,23.029068 
	C266.062164,23.570610 264.845367,24.076563 263.666626,24.659475 
	C256.008698,28.446405 252.685272,34.944576 254.016571,43.485226 
	C255.155334,50.790741 260.970978,56.217361 269.597778,57.767845 
M518.103027,28.361738 
	C514.437439,37.893681 510.771881,47.425621 507.074554,57.040070 
	C513.566101,58.130508 513.671387,58.167961 515.687012,52.501553 
	C516.636719,49.831657 517.578735,47.550152 521.745117,48.214520 
	C525.563110,48.199776 529.496460,47.707050 530.302429,53.193405 
	C531.029907,58.145390 534.372742,58.290424 538.698914,57.087132 
	C534.808960,46.979996 531.038513,37.232105 527.313171,27.467022 
	C526.474243,25.267967 525.798950,22.441078 522.773315,23.528103 
	C521.053101,24.146116 519.894470,26.326958 518.103027,28.361738 
M219.902023,40.586403 
	C217.268234,47.750671 218.864868,53.673100 224.229736,56.639179 
	C228.949738,59.248734 233.246170,58.371590 237.715454,52.880733 
	C234.967010,52.586273 232.801178,51.715702 231.156082,52.303219 
	C226.990753,53.790783 225.494888,51.760891 223.881805,47.707188 
	C229.550781,47.707188 234.556595,47.707188 239.710007,47.707188 
	C239.827072,41.904358 237.757141,38.084312 232.967056,36.000946 
	C228.465256,34.042973 224.372437,35.378773 219.902023,40.586403 
M476.149933,41.721016 
	C472.077271,35.049198 465.578552,33.189514 460.292389,37.183197 
	C455.162415,41.058861 454.358643,49.135597 458.603851,54.150200 
	C462.861389,59.179317 469.404510,59.302685 474.173767,54.379917 
	C472.730865,51.538467 470.946838,50.985500 467.789917,52.342449 
	C464.375793,53.809952 462.298065,52.052345 461.986542,47.887035 
	C464.664703,47.887035 466.984070,47.887039 469.303406,47.887039 
	C471.762909,47.887039 474.222412,47.887035 477.184479,47.887035 
	C476.883667,45.675632 476.664978,44.067940 476.149933,41.721016 
M438.898682,57.721451 
	C443.344116,57.721451 447.789581,57.721451 452.423462,57.721451 
	C452.423462,55.598614 452.423462,54.056301 452.423462,52.292290 
	C449.410400,52.130131 446.740448,51.986435 443.200073,51.795895 
	C446.466156,47.953388 449.156036,45.038425 451.552185,41.899258 
	C453.932587,38.780727 453.154602,35.766113 450.019165,35.625591 
	C445.241455,35.411472 440.447083,35.569508 435.432678,35.569508 
	C435.432678,37.569176 435.432678,38.972607 435.432678,40.652782 
	C438.550476,40.821598 441.419250,40.976929 444.972046,41.169292 
	C441.811798,44.858013 438.875854,47.798168 436.556580,51.163357 
	C435.013214,53.402702 432.699371,56.635551 438.898682,57.721451 
M340.180359,53.984665 
	C343.163086,58.221783 347.335754,57.985588 351.836365,57.368401 
	C351.972870,54.136925 351.724823,51.858891 347.790710,51.785042 
	C346.795746,51.766361 345.233002,49.857342 344.994019,48.612850 
	C344.542969,46.264359 344.863770,43.767632 344.863770,41.350243 
	C347.241058,40.988171 348.987274,40.722214 351.065186,40.405743 
	C350.893890,38.766838 350.750183,37.391624 350.618561,36.132294 
	C348.519623,35.877205 346.910889,35.681694 345.142853,35.466827 
	C344.919495,32.650505 344.715240,30.074942 344.504913,27.422741 
	C342.574799,27.422741 341.004486,27.422741 339.417816,27.422741 
	C338.182159,30.779837 340.580536,35.098602 336.151886,37.168655 
	C335.888458,37.291782 336.457977,39.532799 336.878754,40.702377 
	C337.459381,42.316406 338.563690,43.786316 338.909515,45.430321 
	C339.447693,47.988766 339.536560,50.641724 340.180359,53.984665 
M325.693115,43.912579 
	C324.488159,43.350544 323.283234,42.788513 322.078278,42.226482 
	C322.224487,41.746864 322.370697,41.267250 322.516907,40.787632 
	C324.321503,41.089962 326.178284,41.797375 327.915161,41.573689 
	C329.461853,41.374493 330.875793,40.144600 332.776550,39.144211 
	C326.505707,34.648655 320.285400,34.269581 318.128845,38.324581 
	C312.712830,48.508305 323.427612,47.340061 327.798370,50.630672 
	C327.638641,51.110115 327.478912,51.589558 327.319183,52.069000 
	C324.511505,51.666241 321.703827,51.263477 318.476715,50.800549 
	C317.939117,51.486183 317.077026,52.585651 316.186279,53.721687 
	C320.373230,57.675545 324.905670,59.074162 329.606873,56.249264 
	C331.340851,55.207317 332.662933,52.374691 332.918762,50.210537 
	C333.435669,45.838493 329.711273,44.996387 325.693115,43.912579 
M117.758865,44.487259 
	C117.758865,37.564564 117.758865,30.641872 117.758865,23.707764 
	C115.142365,23.707764 113.252861,23.707764 111.049973,23.707764 
	C111.049973,29.568888 111.049973,35.040119 111.049973,40.511353 
	C111.049973,46.098667 111.049973,51.685986 111.049973,57.285557 
	C113.634933,57.285557 115.516197,57.285557 117.758492,57.285557 
	C117.758492,53.085232 117.758492,49.283012 117.758865,44.487259 
M489.994446,35.596703 
	C487.142609,35.596703 484.290802,35.596703 481.505249,35.596703 
	C481.505249,43.359592 481.505249,50.368073 481.505249,57.690292 
	C483.526276,57.583660 485.112427,57.499969 487.144562,57.392750 
	C487.144562,53.760887 486.763885,50.419956 487.283508,47.225471 
	C487.608978,45.224674 488.911987,42.294479 490.436523,41.794537 
	C494.064667,40.604778 494.074310,38.208027 494.308136,35.090298 
	C492.942505,35.153835 491.830505,35.205570 489.994446,35.596703 
M543.263611,52.271706 
	C543.339172,53.887531 543.414734,55.503353 543.501099,57.351032 
	C545.689453,57.351032 547.552673,57.351032 549.499268,57.351032 
	C549.499268,49.983524 549.499268,42.978481 549.499268,36.031219 
	C547.248352,36.031219 545.366943,36.031219 543.264038,36.031219 
	C543.264038,41.398659 543.264038,46.363850 543.263611,52.271706 
M429.161926,43.557789 
	C429.161926,41.129971 429.161926,38.702152 429.161926,36.237564 
	C426.793884,36.237564 425.090302,36.237564 423.348816,36.237564 
	C423.348816,43.480976 423.348816,50.347752 423.348816,57.290279 
	C425.388855,57.290279 427.101501,57.290279 429.162109,57.290279 
	C429.162109,52.783897 429.162109,48.659206 429.161926,43.557789 
M46.817558,76.138405 
	C45.382980,76.213539 43.948402,76.288673 42.513824,76.363800 
	C42.237644,76.834602 41.961468,77.305412 41.685291,77.776215 
	C43.969982,79.507835 46.170353,82.483421 48.561424,82.645493 
	C51.338028,82.833679 54.588070,80.845306 54.708927,76.138474 
	C52.198612,76.138474 49.940399,76.138474 46.817558,76.138405 
M41.753838,68.720337 
	C43.500244,68.439423 45.246651,68.158508 47.628590,67.775368 
	C47.657932,67.177811 47.724155,65.829201 47.811680,64.046783 
	C44.549427,64.046783 41.717392,63.818054 38.955383,64.158073 
	C37.832615,64.296303 36.862095,65.671181 35.822304,66.483383 
	C36.868584,67.258705 37.856491,68.140381 38.987560,68.761230 
	C39.497570,69.041168 40.292931,68.801270 41.753838,68.720337 
M429.039032,27.316814 
	C427.187103,27.220560 425.287842,26.876616 423.518890,27.214643 
	C423.112915,27.292227 422.598022,30.042458 423.142944,30.968622 
	C423.721588,31.952108 426.308289,32.999741 426.614807,32.678871 
	C427.841980,31.394173 428.524231,29.588949 429.039032,27.316814 
M547.311157,25.949366 
	C545.871094,26.947298 544.431091,27.945230 542.991028,28.943157 
	C543.860535,30.191256 544.488892,31.981916 545.678223,32.510616 
	C546.580994,32.911926 549.264221,31.767536 549.296204,31.205132 
	C549.390564,29.547564 548.560547,27.837391 547.311157,25.949366 
M59.016605,64.190887 
	C55.960922,63.868435 52.890186,63.525330 53.438782,68.786156 
	C55.061996,68.786156 56.687035,68.999687 58.232227,68.739334 
	C60.994297,68.273918 62.157848,66.973701 59.016605,64.190887 
z"/>
<path fill="#4EA7F4" opacity="1.000000" stroke="none" 
	d="
M220.079315,40.251850 
	C224.372437,35.378773 228.465256,34.042973 232.967056,36.000946 
	C237.757141,38.084312 239.827072,41.904358 239.710007,47.707188 
	C234.556595,47.707188 229.550781,47.707188 223.881805,47.707188 
	C225.494888,51.760891 226.990753,53.790783 231.156082,52.303219 
	C232.801178,51.715702 234.967010,52.586273 237.715454,52.880733 
	C233.246170,58.371590 228.949738,59.248734 224.229736,56.639179 
	C218.864868,53.673100 217.268234,47.750671 220.079315,40.251850 
M225.163956,42.827869 
	C227.650513,43.278572 230.137070,43.729271 232.623611,44.179970 
	C232.714447,43.536522 232.805267,42.893078 232.896088,42.249630 
	C230.791107,39.646339 228.401367,38.898026 225.163956,42.827869 
z"/>
<path fill="#F215D8" opacity="1.000000" stroke="none" 
	d="
M518.482910,27.804007 
	C519.894470,26.326958 521.053101,24.146116 522.773315,23.528103 
	C525.798950,22.441078 526.474243,25.267967 527.313171,27.467022 
	C531.038513,37.232105 534.808960,46.979996 538.698914,57.087132 
	C534.372742,58.290424 531.029907,58.145390 530.302429,53.193405 
	C529.496460,47.707050 525.563110,48.199776 521.373047,47.680668 
	C521.001343,45.486984 521.001709,43.827156 521.395874,42.109840 
	C523.065125,41.962551 524.340454,41.872738 526.511719,41.719837 
	C524.849426,39.162983 523.526428,37.128059 521.898743,34.867641 
	C520.556946,32.362762 519.519958,30.083385 518.482910,27.804007 
z"/>
<path fill="#D035DE" opacity="1.000000" stroke="none" 
	d="
M476.298096,42.090630 
	C476.664978,44.067940 476.883667,45.675632 477.184479,47.887035 
	C474.222412,47.887035 471.762909,47.887039 469.303406,47.887039 
	C466.984070,47.887039 464.664703,47.887035 461.986542,47.887035 
	C462.298065,52.052345 464.375793,53.809952 467.789917,52.342449 
	C470.946838,50.985500 472.730865,51.538467 474.173767,54.379917 
	C469.404510,59.302685 462.861389,59.179317 458.603851,54.150200 
	C454.358643,49.135597 455.162415,41.058861 460.292389,37.183197 
	C465.578552,33.189514 472.077271,35.049198 476.298096,42.090630 
M468.895935,43.908463 
	C469.317993,43.245712 470.261871,42.264038 470.081757,41.969345 
	C468.183136,38.862904 464.661255,39.550343 462.152344,43.917591 
	C464.333649,43.917591 466.213989,43.917591 468.895935,43.908463 
z"/>
<path fill="#C747E1" opacity="1.000000" stroke="none" 
	d="
M438.456696,57.719246 
	C432.699371,56.635551 435.013214,53.402702 436.556580,51.163357 
	C438.875854,47.798168 441.811798,44.858013 444.972046,41.169292 
	C441.419250,40.976929 438.550476,40.821598 435.432678,40.652782 
	C435.432678,38.972607 435.432678,37.569176 435.432678,35.569508 
	C440.447083,35.569508 445.241455,35.411472 450.019165,35.625591 
	C453.154602,35.766113 453.932587,38.780727 451.552185,41.899258 
	C449.156036,45.038425 446.466156,47.953388 443.200073,51.795895 
	C446.740448,51.986435 449.410400,52.130131 452.423462,52.292290 
	C452.423462,54.056301 452.423462,55.598614 452.423462,57.721451 
	C447.789581,57.721451 443.344116,57.721451 438.456696,57.719246 
z"/>
<path fill="#8D70E9" opacity="1.000000" stroke="none" 
	d="
M339.998108,53.619648 
	C339.536560,50.641724 339.447693,47.988766 338.909515,45.430321 
	C338.563690,43.786316 337.459381,42.316406 336.878754,40.702377 
	C336.457977,39.532799 335.888458,37.291782 336.151886,37.168655 
	C340.580536,35.098602 338.182159,30.779837 339.417816,27.422741 
	C341.004486,27.422741 342.574799,27.422741 344.504913,27.422741 
	C344.715240,30.074942 344.919495,32.650505 345.142853,35.466827 
	C346.910889,35.681694 348.519623,35.877205 350.618561,36.132294 
	C350.750183,37.391624 350.893890,38.766838 351.065186,40.405743 
	C348.987274,40.722214 347.241058,40.988171 344.863770,41.350243 
	C344.863770,43.767632 344.542969,46.264359 344.994019,48.612850 
	C345.233002,49.857342 346.795746,51.766361 347.790710,51.785042 
	C351.724823,51.858891 351.972870,54.136925 351.836365,57.368401 
	C347.335754,57.985588 343.163086,58.221783 339.998108,53.619648 
z"/>
<path fill="#8379EB" opacity="1.000000" stroke="none" 
	d="
M326.075867,43.991081 
	C329.711273,44.996387 333.435669,45.838493 332.918762,50.210537 
	C332.662933,52.374691 331.340851,55.207317 329.606873,56.249264 
	C324.905670,59.074162 320.373230,57.675545 316.186279,53.721687 
	C317.077026,52.585651 317.939117,51.486183 318.476715,50.800549 
	C321.703827,51.263477 324.511505,51.666241 327.319183,52.069000 
	C327.478912,51.589558 327.638641,51.110115 327.798370,50.630672 
	C323.427612,47.340061 312.712830,48.508305 318.128845,38.324581 
	C320.285400,34.269581 326.505707,34.648655 332.776550,39.144211 
	C330.875793,40.144600 329.461853,41.374493 327.915161,41.573689 
	C326.178284,41.797375 324.321503,41.089962 322.516907,40.787632 
	C322.370697,41.267250 322.224487,41.746864 322.078278,42.226482 
	C323.283234,42.788513 324.488159,43.350544 326.075867,43.991081 
z"/>
<path fill="#5B95F1" opacity="1.000000" stroke="none" 
	d="
M268.002228,29.059719 
	C258.562073,34.721825 257.263184,42.234135 264.600281,49.355873 
	C265.543884,50.271767 267.041931,50.616436 268.635681,51.815525 
	C268.968628,54.070404 268.949036,55.735466 268.929443,57.400528 
	C260.970978,56.217361 255.155334,50.790741 254.016571,43.485226 
	C252.685272,34.944576 256.008698,28.446405 263.666626,24.659475 
	C264.845367,24.076563 266.062164,23.570610 267.630920,23.469481 
	C268.001038,25.626501 268.001617,27.343111 268.002228,29.059719 
z"/>
<path fill="#1DDFFF" opacity="1.000000" stroke="none" 
	d="
M117.758682,44.984024 
	C117.758492,49.283012 117.758492,53.085232 117.758492,57.285557 
	C115.516197,57.285557 113.634933,57.285557 111.049973,57.285557 
	C111.049973,51.685986 111.049973,46.098667 111.049973,40.511353 
	C111.049973,35.040119 111.049973,29.568888 111.049973,23.707764 
	C113.252861,23.707764 115.142365,23.707764 117.758865,23.707764 
	C117.758865,30.641872 117.758865,37.564564 117.758682,44.984024 
z"/>
<path fill="#40AEF6" opacity="1.000000" stroke="none" 
	d="
M205.001434,64.042961 
	C206.026550,61.973789 207.051666,59.904621 208.076782,57.835449 
	C207.287018,57.571751 206.497238,57.308052 205.353088,56.686745 
	C204.667175,54.954758 204.335648,53.580376 204.312561,52.014683 
	C209.612961,47.519997 209.468552,44.936897 204.055008,40.431095 
	C204.417160,38.662796 204.728516,37.252773 205.039856,35.842751 
	C207.801895,35.842747 210.563950,35.842747 213.786575,35.842747 
	C213.786575,44.351166 214.407822,52.626312 213.465073,60.719269 
	C213.113297,63.738899 209.110062,66.333160 206.394348,68.782181 
	C205.678406,66.976311 205.339920,65.509636 205.001434,64.042961 
z"/>
<path fill="#EB1BD9" opacity="1.000000" stroke="none" 
	d="
M521.002075,42.167324 
	C521.001709,43.827156 521.001343,45.486984 521.004272,47.561890 
	C517.578735,47.550152 516.636719,49.831657 515.687012,52.501553 
	C513.671387,58.167961 513.566101,58.130508 507.074554,57.040070 
	C510.771881,47.425621 514.437439,37.893681 518.292969,28.082872 
	C519.519958,30.083385 520.556946,32.362762 521.813660,35.218498 
	C521.689575,37.919006 521.345825,40.043163 521.002075,42.167324 
z"/>
<path fill="#2EC2F9" opacity="1.000000" stroke="none" 
	d="
M179.072754,56.159164 
	C175.477737,59.774731 171.874466,57.597248 168.879028,55.581074 
	C164.848679,52.868332 163.200562,48.648167 164.470917,43.756031 
	C166.029678,37.753376 170.744629,34.859219 177.693481,36.224464 
	C177.987869,38.281712 177.974564,39.707989 177.558502,41.083015 
	C172.271912,41.111416 169.554260,43.220333 170.055923,46.900204 
	C170.684891,51.513912 173.796631,52.635876 177.974274,52.231873 
	C178.350418,53.791801 178.711578,54.975483 179.072754,56.159164 
z"/>
<path fill="#1DCFFC" opacity="1.000000" stroke="none" 
	d="
M151.004532,40.974735 
	C146.595566,40.562294 145.220718,43.190853 145.128448,46.959610 
	C145.047989,50.245895 145.111679,53.535713 145.111679,57.230148 
	C143.148361,57.230148 141.455658,57.230148 139.090790,57.230148 
	C139.090790,53.981274 139.401031,50.701786 138.979889,47.519081 
	C138.706818,45.455402 137.365906,43.533020 136.253479,40.885521 
	C136.000610,38.699333 135.997742,37.174957 135.994873,35.650581 
	C137.872665,36.267422 139.750458,36.884266 141.975433,37.615154 
	C144.225388,36.977779 147.228439,36.127068 150.608017,35.791420 
	C150.991211,37.862572 150.997864,39.418652 151.004532,40.974735 
z"/>
<path fill="#3DB5F7" opacity="1.000000" stroke="none" 
	d="
M204.753784,35.604378 
	C204.728516,37.252773 204.417160,38.662796 203.664978,40.464607 
	C199.580017,40.931541 197.119537,42.736416 197.145370,46.389694 
	C197.174927,50.572929 199.986450,52.299747 204.004120,52.205994 
	C204.335648,53.580376 204.667175,54.954758 205.004974,56.688248 
	C198.937027,58.700878 193.552734,55.657024 191.661209,49.500309 
	C189.931168,43.869194 193.308899,37.516956 199.128815,35.830471 
	C200.811966,35.342728 202.682877,35.502880 204.753784,35.604378 
z"/>
<path fill="#DC2DDC" opacity="1.000000" stroke="none" 
	d="
M490.356476,35.427002 
	C491.830505,35.205570 492.942505,35.153835 494.308136,35.090298 
	C494.074310,38.208027 494.064667,40.604778 490.436523,41.794537 
	C488.911987,42.294479 487.608978,45.224674 487.283508,47.225471 
	C486.763885,50.419956 487.144562,53.760887 487.144562,57.392750 
	C485.112427,57.499969 483.526276,57.583660 481.505249,57.690292 
	C481.505249,50.368073 481.505249,43.359592 481.505249,35.596703 
	C484.290802,35.596703 487.142609,35.596703 490.356476,35.427002 
z"/>
<path fill="#AA54E4" opacity="1.000000" stroke="none" 
	d="
M405.021973,41.062794 
	C401.487823,43.379990 401.967468,46.980576 402.006653,50.449501 
	C402.030914,52.597469 402.011139,54.745934 402.011139,57.292198 
	C400.023712,57.292198 398.316101,57.292198 395.986359,57.292198 
	C395.986359,53.954475 395.907928,50.681973 396.008606,47.414993 
	C396.107544,44.205112 394.991730,41.929680 391.367554,40.549171 
	C391.003571,38.505489 391.007324,36.934982 391.011078,35.364479 
	C391.979309,35.443001 393.163300,35.190170 393.879181,35.656273 
	C397.342712,37.911247 400.723785,37.608162 404.573853,36.199623 
	C404.990662,38.112663 405.006317,39.587727 405.021973,41.062794 
z"/>
<path fill="#9C63E7" opacity="1.000000" stroke="none" 
	d="
M364.026398,35.596630 
	C371.192474,34.918064 376.580353,39.198727 376.973999,45.883438 
	C377.366272,52.545551 372.509613,57.300270 364.387421,57.313618 
	C364.004700,55.282013 364.003662,53.768936 364.412476,52.231869 
	C368.930634,52.372673 371.153809,50.366943 371.131592,46.290588 
	C371.106049,41.609463 367.890076,40.606277 363.998657,40.244194 
	C364.008698,38.452286 364.017548,37.024456 364.026398,35.596630 
z"/>
<path fill="#10D5FD" opacity="1.000000" stroke="none" 
	d="
M135.602783,35.478439 
	C135.997742,37.174957 136.000610,38.699333 136.002136,40.610497 
	C131.664169,40.572235 130.041199,42.927341 130.015030,46.875530 
	C129.993088,50.184090 130.010513,53.492908 130.010513,57.206276 
	C128.081467,57.206276 126.375412,57.206276 124.329758,57.206276 
	C124.329758,50.362892 124.329758,43.489258 124.329758,36.253506 
	C127.899506,35.942757 131.555099,35.624531 135.602783,35.478439 
z"/>
<path fill="#33BCF8" opacity="1.000000" stroke="none" 
	d="
M179.440659,56.174358 
	C178.711578,54.975483 178.350418,53.791801 178.173615,51.948311 
	C182.152802,47.047314 182.100464,45.707623 177.961273,41.134270 
	C177.974564,39.707989 177.987869,38.281712 178.000626,36.427582 
	C180.829559,35.999737 183.659058,35.999737 186.719604,35.999737 
	C186.719604,43.205990 186.719604,50.076591 186.719604,58.053341 
	C184.149246,57.360157 181.978912,56.774853 179.440659,56.174358 
z"/>
<path fill="#FD22DA" opacity="1.000000" stroke="none" 
	d="
M543.263794,51.800373 
	C543.264038,46.363850 543.264038,41.398659 543.264038,36.031219 
	C545.366943,36.031219 547.248352,36.031219 549.499268,36.031219 
	C549.499268,42.978481 549.499268,49.983524 549.499268,57.351032 
	C547.552673,57.351032 545.689453,57.351032 543.501099,57.351032 
	C543.414734,55.503353 543.339172,53.887531 543.263794,51.800373 
z"/>
<path fill="#A35AE5" opacity="1.000000" stroke="none" 
	d="
M390.600800,35.339622 
	C391.007324,36.934982 391.003571,38.505489 391.000244,40.470909 
	C387.922729,41.960953 386.713531,44.145279 386.880554,47.381859 
	C387.041779,50.506275 386.915497,53.645531 386.915497,57.385456 
	C385.018555,57.482037 383.335510,57.567730 381.264587,57.673168 
	C381.264587,50.411636 381.264587,43.559074 381.264587,36.357201 
	C384.178864,36.016850 387.184692,35.665806 390.600800,35.339622 
z"/>
<path fill="#B350E3" opacity="1.000000" stroke="none" 
	d="
M405.410767,41.061981 
	C405.006317,39.587727 404.990662,38.112663 404.957336,36.191891 
	C411.132355,34.727215 416.347290,38.218891 416.920929,44.247509 
	C417.322723,48.470104 416.998444,52.761795 416.998444,57.411572 
	C415.118042,57.523785 413.540955,57.617901 411.087616,57.764313 
	C411.087616,53.869087 411.105347,50.320442 411.082550,46.772064 
	C411.060120,43.278263 409.573578,41.102409 405.410767,41.061981 
z"/>
<path fill="#2BCBFB" opacity="1.000000" stroke="none" 
	d="
M151.275009,41.236069 
	C150.997864,39.418652 150.991211,37.862572 150.970413,35.923676 
	C156.859589,36.672718 159.693771,39.202236 160.243057,44.752674 
	C160.644974,48.813828 160.321762,52.946747 160.321762,57.360397 
	C158.344635,57.360397 156.625351,57.360397 154.936295,57.360397 
	C152.451645,52.249393 157.067230,45.789185 151.275009,41.236069 
z"/>
<path fill="#A956E4" opacity="1.000000" stroke="none" 
	d="
M52.935272,15.855257 
	C56.753933,14.076759 61.404591,16.921152 62.960697,22.750465 
	C62.564919,24.274895 62.304104,25.118322 62.027275,26.367422 
	C61.994675,27.852013 61.978096,28.930933 61.708080,30.117538 
	C60.973740,30.494215 60.492832,30.763205 59.744286,31.153360 
	C60.036140,33.694180 60.595638,36.113831 60.934967,38.747223 
	C61.029678,40.126774 61.344555,41.292591 61.663300,42.458122 
	C59.804413,43.352779 57.941654,44.247723 56.052906,44.714073 
	C55.687603,41.523811 55.348293,38.762142 55.258018,36.000748 
	C55.507050,36.001022 56.005322,36.000153 56.057320,36.139194 
	C56.194332,36.328133 56.279346,36.378033 56.364357,36.427929 
	C56.242954,36.287060 56.121555,36.146191 55.997429,35.668312 
	C55.986298,34.882027 55.977886,34.432751 55.977749,33.582047 
	C55.984970,32.108334 55.983917,31.036051 56.032616,29.665213 
	C56.030609,28.967302 55.978855,28.567945 55.968178,27.824471 
	C56.670105,26.318497 57.330948,25.156643 58.288277,23.959984 
	C58.913143,23.617901 59.241528,23.310625 59.569916,23.003345 
	C59.081051,22.671047 58.592182,22.338747 57.980743,21.758259 
	C57.330410,21.002520 56.802647,20.494970 56.033558,19.768921 
	C54.862495,19.014935 53.932758,18.479448 52.998596,17.595631 
	C52.974537,16.783283 52.954903,16.319271 52.935272,15.855257 
z"/>
<path fill="#6E82ED" opacity="1.000000" stroke="none" 
	d="
M303.168945,57.474354 
	C296.230774,58.470173 291.303375,54.665672 291.015839,47.915180 
	C290.854401,44.125023 290.986755,40.322350 290.986755,36.206413 
	C293.095276,36.206413 294.793121,36.206413 296.984497,36.206413 
	C296.984497,39.739811 297.030243,43.033382 296.972076,46.325123 
	C296.908997,49.897171 298.160675,52.154701 302.573303,52.320671 
	C303.045135,54.323364 303.107056,55.898861 303.168945,57.474354 
z"/>
<path fill="#7A81ED" opacity="1.000000" stroke="none" 
	d="
M303.532104,57.388542 
	C303.107056,55.898861 303.045135,54.323364 302.967163,52.278313 
	C303.689545,48.879009 304.618774,45.980244 305.101318,43.008938 
	C305.439056,40.929279 305.166504,38.750511 305.166504,36.133633 
	C307.300659,36.032513 309.025543,35.950787 310.707428,35.871094 
	C313.264679,49.197937 310.552856,56.208817 303.532104,57.388542 
z"/>
<path fill="#9769E8" opacity="1.000000" stroke="none" 
	d="
M363.688416,35.524017 
	C364.017548,37.024456 364.008698,38.452286 363.684692,40.450157 
	C358.356842,45.173634 358.557312,48.731373 364.002625,52.255856 
	C364.003662,53.768936 364.004700,55.282013 364.012024,57.166714 
	C357.744751,56.117115 354.304291,52.413410 354.094604,46.855343 
	C353.891754,41.479832 356.998840,37.651665 363.688416,35.524017 
z"/>
<path fill="#49B1F6" opacity="1.000000" stroke="none" 
	d="
M31.898911,50.214149 
	C25.007042,42.759163 24.170166,34.005733 29.968563,24.104935 
	C30.666353,23.571915 30.821398,23.280476 30.976442,22.989035 
	C30.976442,22.989035 31.003080,22.996391 31.321466,22.972153 
	C32.466614,23.559713 33.293377,24.171515 33.960228,25.141140 
	C33.205379,29.668110 32.610447,33.837254 32.138672,38.316910 
	C32.509872,39.694386 32.757908,40.761345 32.716595,41.986240 
	C32.613586,43.823830 32.799931,45.503483 32.951401,47.505997 
	C32.577324,48.623951 32.238117,49.419052 31.898911,50.214149 
z"/>
<path fill="#B945E1" opacity="1.000000" stroke="none" 
	d="
M429.162018,44.046150 
	C429.162109,48.659206 429.162109,52.783897 429.162109,57.290279 
	C427.101501,57.290279 425.388855,57.290279 423.348816,57.290279 
	C423.348816,50.347752 423.348816,43.480976 423.348816,36.237564 
	C425.090302,36.237564 426.793884,36.237564 429.161926,36.237564 
	C429.161926,38.702152 429.161926,41.129971 429.162018,44.046150 
z"/>
<path fill="#648DEF" opacity="1.000000" stroke="none" 
	d="
M268.430603,29.058001 
	C268.001617,27.343111 268.001038,25.626501 268.000000,23.482512 
	C275.635223,21.069160 281.087738,24.477983 286.158722,30.445288 
	C284.459991,31.748808 282.974030,32.889088 281.488037,34.029366 
	C281.534485,33.502941 281.580963,32.976517 281.627441,32.450096 
	C277.371277,31.318825 273.115112,30.187553 268.430603,29.058001 
z"/>
<path fill="#6890F0" opacity="1.000000" stroke="none" 
	d="
M269.263611,57.584187 
	C268.949036,55.735466 268.968628,54.070404 268.973114,52.007309 
	C273.104645,50.414906 277.251251,49.220531 281.397888,48.026154 
	C281.377960,47.546955 281.358032,47.067757 281.338104,46.588558 
	C282.784058,47.567394 284.230042,48.546230 286.070831,49.792336 
	C281.919800,55.734436 276.641571,58.499409 269.263611,57.584187 
z"/>
<path fill="#C83ADF" opacity="1.000000" stroke="none" 
	d="
M62.043289,25.961750 
	C62.304104,25.118322 62.564919,24.274895 62.955875,23.120308 
	C64.703758,23.742702 66.888634,24.287613 67.840874,25.677208 
	C71.923309,31.634697 71.039848,41.716927 65.800644,47.762573 
	C64.921906,47.652737 64.164589,47.173012 64.216431,46.808300 
	C64.729553,43.198311 65.376694,39.607376 65.987396,35.592983 
	C64.673691,32.103867 63.358490,29.032808 62.043289,25.961750 
z"/>
<path fill="#8477EB" opacity="1.000000" stroke="none" 
	d="
M52.587433,15.743933 
	C52.954903,16.319271 52.974537,16.783283 52.686836,17.771004 
	C47.076660,22.147015 50.311554,27.457983 50.008831,32.486328 
	C50.334244,33.540615 50.660648,34.273300 50.990391,35.339569 
	C51.016838,36.117226 51.039948,36.561298 50.997681,37.353531 
	C50.882954,37.932648 50.833607,38.163597 50.498543,38.285095 
	C49.730217,38.440804 49.247604,38.705967 48.596870,38.973106 
	C48.428749,38.975079 48.092609,38.984447 47.896042,38.677219 
	C47.530415,34.118950 47.457806,29.860718 47.141602,25.620649 
	C47.026100,24.071835 46.331821,22.566183 45.780289,20.790806 
	C45.076088,20.092216 44.493183,19.643663 43.937019,18.737501 
	C43.930035,17.055737 43.896313,15.831582 43.862591,14.607428 
	C46.654926,14.949155 49.447262,15.290881 52.587433,15.743933 
z"/>
<path fill="#6586EE" opacity="1.000000" stroke="none" 
	d="
M41.990532,62.848682 
	C36.399181,64.393112 37.218365,59.617195 36.310860,56.256226 
	C37.063766,54.108967 37.544552,52.517448 38.359493,50.790176 
	C38.779068,48.487236 38.864487,46.320061 38.987637,43.807732 
	C39.728699,42.621098 40.432030,41.779617 41.432129,40.937576 
	C42.119751,40.873837 42.510605,40.810658 42.929413,41.107826 
	C42.960655,41.949062 42.963951,42.429943 42.963963,43.178558 
	C42.975964,43.624138 42.991253,43.801979 42.951859,44.396080 
	C42.594959,50.824455 42.292747,56.836567 41.990532,62.848682 
z"/>
<path fill="#9E92EF" opacity="1.000000" stroke="none" 
	d="
M47.249870,76.138443 
	C49.940399,76.138474 52.198612,76.138474 54.708927,76.138474 
	C54.588070,80.845306 51.338028,82.833679 48.561424,82.645493 
	C46.170353,82.483421 43.969982,79.507835 41.685291,77.776215 
	C41.961468,77.305412 42.237644,76.834602 42.513824,76.363800 
	C43.948402,76.288673 45.382980,76.213539 47.249870,76.138443 
z"/>
<path fill="#F1DDFA" opacity="1.000000" stroke="none" 
	d="
M65.985901,36.011044 
	C65.376694,39.607376 64.729553,43.198311 64.216431,46.808300 
	C64.164589,47.173012 64.921906,47.652737 65.674278,48.090919 
	C65.345520,48.747570 64.646202,49.392395 63.468529,49.732895 
	C61.333290,49.628963 59.676414,49.829357 57.859535,49.694496 
	C57.159321,47.953716 56.619110,46.548187 56.078896,45.142662 
	C57.941654,44.247723 59.804413,43.352779 61.663300,42.458122 
	C61.344555,41.292591 61.029678,40.126774 61.278008,38.664291 
	C63.222775,37.582100 64.604340,36.796574 65.985901,36.011044 
z"/>
<path fill="#3EB4F7" opacity="1.000000" stroke="none" 
	d="
M204.579361,64.073425 
	C205.339920,65.509636 205.678406,66.976311 206.034988,68.827278 
	C201.309708,71.217888 197.454071,69.294235 193.367126,66.601135 
	C195.194290,63.737125 196.798233,61.857662 200.254303,63.765793 
	C201.299057,64.342613 202.842346,64.016449 204.579361,64.073425 
z"/>
<path fill="#8893F0" opacity="1.000000" stroke="none" 
	d="
M50.978924,74.775162 
	C47.324505,74.831856 43.656803,75.080444 40.023727,74.828873 
	C38.926880,74.752914 37.926113,73.289352 36.881332,72.461411 
	C37.950478,71.658684 38.966103,70.267456 40.098877,70.164444 
	C43.395313,69.864655 46.738636,70.080528 50.525436,70.537781 
	C50.984509,72.245979 50.981716,73.510567 50.978924,74.775162 
z"/>
<path fill="#7087EE" opacity="1.000000" stroke="none" 
	d="
M42.375488,62.896614 
	C42.292747,56.836567 42.594959,50.824455 43.266212,44.555946 
	C44.021416,45.692738 44.340000,47.110107 44.825748,48.467663 
	C45.030991,49.041260 45.588135,49.488941 45.993042,50.386765 
	C46.023952,51.565575 46.047150,52.351475 46.070347,53.137379 
	C46.007648,54.639374 45.679577,56.188972 45.938641,57.633251 
	C46.445526,60.459126 45.882858,62.403439 42.375488,62.896614 
z"/>
<path fill="#809BF1" opacity="1.000000" stroke="none" 
	d="
M41.356331,68.758781 
	C40.292931,68.801270 39.497570,69.041168 38.987560,68.761230 
	C37.856491,68.140381 36.868584,67.258705 35.822304,66.483383 
	C36.862095,65.671181 37.832615,64.296303 38.955383,64.158073 
	C41.717392,63.818054 44.549427,64.046783 47.811680,64.046783 
	C47.724155,65.829201 47.657932,67.177811 47.628590,67.775368 
	C45.246651,68.158508 43.500244,68.439423 41.356331,68.758781 
z"/>
<path fill="#9F55E4" opacity="1.000000" stroke="none" 
	d="
M60.125797,57.064423 
	C59.108570,59.621365 59.446289,63.493305 54.418449,62.025970 
	C54.030727,58.429588 54.036461,55.346958 54.369881,52.211868 
	C55.127567,52.058376 55.557571,51.957344 56.212986,51.891495 
	C56.438396,51.926674 56.894451,51.940929 57.180496,52.135883 
	C58.352962,53.908699 59.239380,55.486561 60.125797,57.064423 
z"/>
<path fill="#9D76EA" opacity="1.000000" stroke="none" 
	d="
M54.042191,52.264336 
	C54.036461,55.346958 54.030727,58.429588 54.066032,61.904240 
	C52.685631,62.469482 51.264187,62.642696 48.886768,62.932404 
	C49.536564,59.121567 50.070591,55.989693 50.309929,52.261684 
	C50.034470,51.056572 50.053696,50.447594 50.348881,50.029091 
	C51.763954,50.901154 52.903072,51.582745 54.042191,52.264336 
z"/>
<path fill="#DFE7FC" opacity="1.000000" stroke="none" 
	d="
M43.910282,19.195110 
	C44.493183,19.643663 45.076088,20.092216 45.568279,20.907967 
	C45.222748,21.492075 45.052074,21.762173 44.649834,21.916204 
	C42.774147,21.620552 41.214176,21.494152 40.455009,21.432640 
	C40.603588,23.751396 40.693138,25.148960 40.463871,26.639545 
	C39.097580,26.144903 38.050106,25.557240 36.641426,24.944618 
	C35.560192,24.874210 34.840168,24.828762 34.120140,24.783314 
	C33.293377,24.171515 32.466614,23.559713 31.311943,22.961220 
	C31.623606,22.001770 32.263180,21.029013 33.341137,20.342537 
	C35.117931,20.888195 36.534904,21.555191 37.777168,21.315754 
	C39.879681,20.910511 41.871769,19.932388 43.910282,19.195110 
z"/>
<path fill="#BC4BE2" opacity="1.000000" stroke="none" 
	d="
M429.223541,27.646542 
	C428.524231,29.588949 427.841980,31.394173 426.614807,32.678871 
	C426.308289,32.999741 423.721588,31.952108 423.142944,30.968622 
	C422.598022,30.042458 423.112915,27.292227 423.518890,27.214643 
	C425.287842,26.876616 427.187103,27.220560 429.223541,27.646542 
z"/>
<path fill="#FD12D7" opacity="1.000000" stroke="none" 
	d="
M547.701721,26.048584 
	C548.560547,27.837391 549.390564,29.547564 549.296204,31.205132 
	C549.264221,31.767536 546.580994,32.911926 545.678223,32.510616 
	C544.488892,31.981916 543.860535,30.191256 542.991028,28.943159 
	C544.431091,27.945230 545.871094,26.947298 547.701721,26.048584 
z"/>
<path fill="#AB75EA" opacity="1.000000" stroke="none" 
	d="
M51.414757,74.841621 
	C50.981716,73.510567 50.984509,72.245979 50.983124,70.602875 
	C52.973248,70.169960 55.008625,69.856827 56.945442,70.164375 
	C57.999474,70.331757 58.886124,71.553207 59.848270,72.299240 
	C58.847015,73.179527 57.970993,74.504745 56.813656,74.830505 
	C55.274006,75.263885 53.515232,74.918762 51.414757,74.841621 
z"/>
<path fill="#6293F0" opacity="1.000000" stroke="none" 
	d="
M43.937019,18.737501 
	C41.871769,19.932388 39.879681,20.910511 37.777168,21.315754 
	C36.534904,21.555191 35.117931,20.888195 33.651493,20.295090 
	C36.717594,18.221983 39.911720,16.482605 43.484219,14.675327 
	C43.896313,15.831582 43.930035,17.055737 43.937019,18.737501 
z"/>
<path fill="#9184ED" opacity="1.000000" stroke="none" 
	d="
M50.072929,49.838615 
	C50.053696,50.447594 50.034470,51.056572 50.025856,51.961212 
	C48.984428,52.511997 47.932384,52.767120 46.475342,53.079811 
	C46.047150,52.351475 46.023952,51.565575 46.172241,50.030022 
	C46.926689,45.848396 47.509647,42.416424 48.092609,38.984447 
	C48.092609,38.984447 48.428749,38.975079 48.638412,39.396004 
	C49.256355,43.157494 49.664642,46.498055 50.072929,49.838615 
z"/>
<path fill="#59A0F3" opacity="1.000000" stroke="none" 
	d="
M38.025337,50.925934 
	C37.544552,52.517448 37.063766,54.108967 36.255444,55.874569 
	C34.655193,54.307224 33.382477,52.565792 32.004337,50.519257 
	C32.238117,49.419052 32.577324,48.623951 33.266113,47.623093 
	C35.085579,48.586868 36.555462,49.756401 38.025337,50.925934 
z"/>
<path fill="#B372E9" opacity="1.000000" stroke="none" 
	d="
M59.383568,64.356049 
	C62.157848,66.973701 60.994297,68.273918 58.232227,68.739334 
	C56.687035,68.999687 55.061996,68.786156 53.438782,68.786156 
	C52.890186,63.525330 55.960922,63.868435 59.383568,64.356049 
z"/>
<path fill="#B04FE3" opacity="1.000000" stroke="none" 
	d="
M60.384109,56.834553 
	C59.239380,55.486561 58.352962,53.908699 57.328426,51.888885 
	C57.468895,50.970745 57.747478,50.494556 58.013866,50.010872 
	C58.001667,50.003380 58.019535,50.029755 58.019535,50.029755 
	C59.676414,49.829357 61.333290,49.628963 63.135860,49.735863 
	C62.401840,52.230331 61.522129,54.417507 60.384109,56.834553 
z"/>
<path fill="#DFE7FC" opacity="1.000000" stroke="none" 
	d="
M30.766424,23.088547 
	C30.821398,23.280476 30.666353,23.571915 30.253132,23.890711 
	C30.117294,23.624878 30.304443,23.381542 30.766424,23.088547 
z"/>
<path fill="#E7F3FD" opacity="1.000000" stroke="none" 
	d="
M225.285248,42.459541 
	C228.401367,38.898026 230.791107,39.646339 232.896088,42.249630 
	C232.805267,42.893078 232.714447,43.536522 232.623611,44.179970 
	C230.137070,43.729271 227.650513,43.278572 225.285248,42.459541 
z"/>
<path fill="#FEECFC" opacity="1.000000" stroke="none" 
	d="
M521.395874,42.109840 
	C521.345825,40.043163 521.689575,37.919006 522.118408,35.443993 
	C523.526428,37.128059 524.849426,39.162983 526.511719,41.719837 
	C524.340454,41.872738 523.065125,41.962551 521.395874,42.109840 
z"/>
<path fill="#F7DEF9" opacity="1.000000" stroke="none" 
	d="
M468.495117,43.913025 
	C466.213989,43.917591 464.333649,43.917591 462.152344,43.917591 
	C464.661255,39.550343 468.183136,38.862904 470.081757,41.969345 
	C470.261871,42.264038 469.317993,43.245712 468.495117,43.913025 
z"/>
<path fill="#FBFDFF" opacity="1.000000" stroke="none" 
	d="
M204.312561,52.014683 
	C199.986450,52.299747 197.174927,50.572929 197.145370,46.389694 
	C197.119537,42.736416 199.580017,40.931541 203.614166,40.822884 
	C209.468552,44.936897 209.612961,47.519997 204.312561,52.014683 
z"/>
<path fill="#FBFEFF" opacity="1.000000" stroke="none" 
	d="
M177.558502,41.083015 
	C182.100464,45.707623 182.152802,47.047314 178.158630,51.572060 
	C173.796631,52.635876 170.684891,51.513912 170.055923,46.900204 
	C169.554260,43.220333 172.271912,41.111416 177.558502,41.083015 
z"/>
<path fill="#FBFAFE" opacity="1.000000" stroke="none" 
	d="
M364.412476,52.231869 
	C358.557312,48.731373 358.356842,45.173634 363.683472,40.814240 
	C367.890076,40.606277 371.106049,41.609463 371.131592,46.290588 
	C371.153809,50.366943 368.930634,52.372673 364.412476,52.231869 
z"/>
<path fill="#B94CE2" opacity="1.000000" stroke="none" 
	d="
M65.987396,35.592983 
	C64.604340,36.796574 63.222775,37.582100 61.498169,38.450554 
	C60.595638,36.113831 60.036140,33.694180 59.916252,31.376373 
	C60.891079,30.988762 61.426296,30.499308 61.961517,30.009851 
	C61.978096,28.930933 61.994675,27.852013 62.027271,26.367422 
	C63.358490,29.032808 64.673691,32.103867 65.987396,35.592983 
z"/>
<path fill="#9E6BE8" opacity="1.000000" stroke="none" 
	d="
M56.052910,44.714073 
	C56.619110,46.548187 57.159321,47.953716 57.859535,49.694500 
	C58.019535,50.029755 58.001667,50.003380 57.685181,49.847542 
	C56.906704,49.846539 56.444714,50.001373 55.600658,50.163445 
	C50.378315,48.887089 50.112766,47.606964 53.848511,42.941757 
	C54.269207,40.375187 54.639095,38.187828 55.008987,36.000473 
	C55.348293,38.762142 55.687603,41.523811 56.052910,44.714073 
z"/>
<path fill="#9D69E8" opacity="1.000000" stroke="none" 
	d="
M56.274879,19.987421 
	C56.802647,20.494970 57.330410,21.002520 57.946205,22.088505 
	C58.020088,23.109556 58.005939,23.552174 57.991791,23.994789 
	C57.330948,25.156643 56.670105,26.318497 55.562775,27.826900 
	C53.745319,27.149914 52.374355,26.126377 51.003391,25.102840 
	C52.216221,23.703253 53.392365,22.269003 54.663048,20.924080 
	C55.072308,20.490910 55.730545,20.292973 56.274879,19.987421 
z"/>
<path fill="#EEE7FB" opacity="1.000000" stroke="none" 
	d="
M56.033558,19.768921 
	C55.730545,20.292973 55.072308,20.490910 54.663048,20.924080 
	C53.392365,22.269003 52.216221,23.703253 51.003391,25.102840 
	C52.374355,26.126377 53.745319,27.149914 55.521690,28.171021 
	C55.978855,28.567945 56.030609,28.967302 55.697319,29.690279 
	C54.869869,30.086491 54.427471,30.159081 53.654636,30.172031 
	C52.219406,30.796501 51.114613,31.480612 50.009823,32.164722 
	C50.311554,27.457983 47.076660,22.147015 52.691261,18.119335 
	C53.932758,18.479448 54.862495,19.014935 56.033558,19.768921 
z"/>
<path fill="#9865E7" opacity="1.000000" stroke="none" 
	d="
M50.008831,32.486328 
	C51.114613,31.480612 52.219406,30.796501 53.661400,30.527365 
	C54.655560,31.956049 55.312515,32.969761 55.969475,33.983475 
	C55.977886,34.432751 55.986298,34.882027 55.997330,35.665627 
	C55.999950,35.999950 56.005322,36.000153 56.005322,36.000153 
	C56.005322,36.000153 55.507050,36.001022 55.258018,36.000748 
	C54.639095,38.187828 54.269207,40.375187 53.498184,42.789181 
	C52.326115,41.475399 51.555187,39.934975 50.784260,38.394550 
	C50.833607,38.163597 50.882954,37.932648 51.213364,37.198807 
	C51.325294,36.132607 51.156174,35.569294 50.987053,35.005985 
	C50.660648,34.273300 50.334244,33.540615 50.008831,32.486328 
z"/>
<path fill="#9E6BE8" opacity="1.000000" stroke="none" 
	d="
M55.977749,33.582047 
	C55.312515,32.969761 54.655560,31.956049 53.991837,30.587004 
	C54.427471,30.159081 54.869869,30.086491 55.647568,29.988834 
	C55.983917,31.036051 55.984970,32.108334 55.977749,33.582047 
z"/>
<path fill="#AA55E4" opacity="1.000000" stroke="none" 
	d="
M58.288273,23.959984 
	C58.005939,23.552174 58.020088,23.109556 58.068779,22.336693 
	C58.592182,22.338747 59.081051,22.671047 59.569916,23.003345 
	C59.241528,23.310625 58.913143,23.617901 58.288273,23.959984 
z"/>
<path fill="#AA55E4" opacity="1.000000" stroke="none" 
	d="
M61.708080,30.117538 
	C61.426296,30.499308 60.891079,30.988762 60.183891,31.255207 
	C60.492832,30.763205 60.973740,30.494215 61.708080,30.117538 
z"/>
<path fill="#9E6BE8" opacity="1.000000" stroke="none" 
	d="
M56.000053,36.002636 
	C56.121555,36.146191 56.242954,36.287060 56.364357,36.427929 
	C56.279346,36.378033 56.194332,36.328133 56.057320,36.139194 
	C56.005322,36.000153 55.999950,35.999950 56.000053,36.002636 
z"/>
<path fill="#6595F1" opacity="1.000000" stroke="none" 
	d="
M37.002628,24.969578 
	C38.050106,25.557240 39.097580,26.144903 40.534378,27.017313 
	C40.949646,27.555151 40.975586,27.808241 40.767761,28.218697 
	C40.688171,28.992350 40.842358,29.608641 40.998383,30.641396 
	C41.013077,32.741756 41.025928,34.425648 40.955200,36.507027 
	C40.959534,38.249058 41.047447,39.593601 41.135365,40.938141 
	C40.432030,41.779617 39.728699,42.621098 38.655430,43.665802 
	C36.525642,43.188786 34.765793,42.508549 33.005943,41.828308 
	C32.757908,40.761345 32.509872,39.694386 32.555519,38.315422 
	C34.222691,37.089577 36.605278,36.336258 36.780968,35.231861 
	C37.313553,31.884071 36.991646,28.400347 37.002628,24.969578 
z"/>
<path fill="#58A0F3" opacity="1.000000" stroke="none" 
	d="
M36.641426,24.944618 
	C36.991646,28.400347 37.313553,31.884071 36.780968,35.231861 
	C36.605278,36.336258 34.222691,37.089577 32.432354,38.004910 
	C32.610447,33.837254 33.205379,29.668110 33.960228,25.141140 
	C34.840168,24.828762 35.560192,24.874210 36.641426,24.944618 
z"/>
<path fill="#E2ECFC" opacity="1.000000" stroke="none" 
	d="
M32.716595,41.986244 
	C34.765793,42.508549 36.525642,43.188786 38.617699,44.010956 
	C38.864487,46.320061 38.779068,48.487236 38.359497,50.790176 
	C36.555462,49.756401 35.085579,48.586868 33.300983,47.300240 
	C32.799931,45.503483 32.613586,43.823830 32.716595,41.986244 
z"/>
<path fill="#EAECFC" opacity="1.000000" stroke="none" 
	d="
M40.996540,30.224930 
	C40.842358,29.608641 40.688171,28.992350 41.142799,28.260208 
	C45.638020,27.617990 46.602726,25.541809 44.965549,22.085459 
	C45.052074,21.762173 45.222748,21.492075 45.689575,21.158003 
	C46.331821,22.566183 47.026100,24.071835 47.141602,25.620649 
	C47.457806,29.860718 47.530415,34.118950 47.896042,38.677219 
	C47.509647,42.416424 46.926689,45.848396 46.164528,49.637115 
	C45.588135,49.488941 45.030991,49.041260 44.825748,48.467663 
	C44.340000,47.110107 44.021416,45.692738 43.320892,44.139687 
	C42.991253,43.801979 42.975964,43.624138 43.332809,43.123718 
	C44.632046,41.659908 45.559147,40.518677 46.486252,39.377445 
	C45.985851,38.976429 45.485451,38.575417 44.985050,38.174400 
	C44.290520,39.032093 43.595989,39.889786 42.901463,40.747482 
	C42.510605,40.810658 42.119751,40.873837 41.432129,40.937576 
	C41.047447,39.593601 40.959534,38.249058 41.271889,36.634605 
	C44.786655,37.758820 45.669624,35.495506 45.770123,33.355515 
	C45.921310,30.136095 43.571377,29.791426 40.996540,30.224930 
z"/>
<path fill="#F1ECFC" opacity="1.000000" stroke="none" 
	d="
M50.498543,38.285095 
	C51.555187,39.934975 52.326115,41.475399 53.447376,43.168396 
	C50.112766,47.606964 50.378315,48.887089 55.606327,50.446449 
	C55.991898,51.100258 55.989735,51.478287 55.987576,51.856316 
	C55.557571,51.957344 55.127567,52.058376 54.369877,52.211872 
	C52.903072,51.582745 51.763954,50.901154 50.348885,50.029091 
	C49.664642,46.498055 49.256355,43.157494 48.806534,39.394032 
	C49.247604,38.705967 49.730217,38.440804 50.498543,38.285095 
z"/>
<path fill="#9E6BE8" opacity="1.000000" stroke="none" 
	d="
M50.990391,35.339569 
	C51.156174,35.569294 51.325294,36.132607 51.278740,36.850639 
	C51.039948,36.561298 51.016838,36.117226 50.990391,35.339569 
z"/>
<path fill="#7087EE" opacity="1.000000" stroke="none" 
	d="
M42.929413,41.107830 
	C43.595989,39.889786 44.290520,39.032093 44.985050,38.174400 
	C45.485451,38.575417 45.985851,38.976429 46.486252,39.377445 
	C45.559147,40.518677 44.632046,41.659908 43.336094,42.855984 
	C42.963951,42.429943 42.960655,41.949062 42.929413,41.107830 
z"/>
<path fill="#F1DDFA" opacity="1.000000" stroke="none" 
	d="
M56.212986,51.891495 
	C55.989735,51.478287 55.991898,51.100258 55.988388,50.439220 
	C56.444714,50.001373 56.906704,49.846539 57.697380,49.855034 
	C57.747478,50.494556 57.468895,50.970745 57.042381,51.693932 
	C56.894451,51.940929 56.438396,51.926674 56.212986,51.891495 
z"/>
<path fill="#768AEE" opacity="1.000000" stroke="none" 
	d="
M44.649834,21.916204 
	C46.602726,25.541809 45.638020,27.617990 41.376572,28.102844 
	C40.975586,27.808241 40.949646,27.555151 40.853195,26.924292 
	C40.693138,25.148960 40.603588,23.751396 40.455009,21.432640 
	C41.214176,21.494152 42.774147,21.620552 44.649834,21.916204 
z"/>
<path fill="#7685EE" opacity="1.000000" stroke="none" 
	d="
M40.998383,30.641396 
	C43.571377,29.791426 45.921310,30.136095 45.770123,33.355515 
	C45.669624,35.495506 44.786655,37.758820 41.355469,36.237114 
	C41.025928,34.425648 41.013077,32.741756 40.998383,30.641396 
z"/>
</svg>